<svg xmlns="http://www.w3.org/2000/svg" viewBox="0 0 1920 1080" preserveAspectRatio="xMidYMid slice">
  <defs>
    <linearGradient id="queuePrimary" x1="0%" y1="0%" x2="100%" y2="100%">
      <stop offset="0%" style="stop-color:#0d7a7a;stop-opacity:0.15" />
      <stop offset="100%" style="stop-color:#0a5f5f;stop-opacity:0.05" />
    </linearGradient>
    <linearGradient id="queueAccent" x1="100%" y1="0%" x2="0%" y2="100%">
      <stop offset="0%" style="stop-color:#4a9ea8;stop-opacity:0.12" />
      <stop offset="100%" style="stop-color:#3d8a94;stop-opacity:0.04" />
    </linearGradient>
    <pattern id="queueGrid" width="50" height="50" patternUnits="userSpaceOnUse">
      <path d="M 50 0 L 0 0 0 50" fill="none" stroke="#0d7a7a" stroke-width="0.5" stroke-opacity="0.07"/>
    </pattern>
  </defs>
  
  <rect width="1920" height="1080" fill="#f8f9fa"/>
  
  <ellipse cx="100" cy="150" rx="750" ry="550" fill="url(#queuePrimary)"/>
  <ellipse cx="1820" cy="200" rx="700" ry="500" fill="url(#queueAccent)"/>
  
  <rect width="1920" height="1080" fill="url(#queueGrid)" opacity="0.5"/>
  
  <g opacity="0.04" stroke="#0d7a7a" stroke-width="2" fill="none">
    <path d="M 0 400 L 200 400 L 250 350 L 300 450 L 350 400 L 600 400"/>
    <path d="M 1320 400 L 1570 400 L 1620 350 L 1670 450 L 1720 400 L 1920 400"/>
  </g>
  
  <g opacity="0.03" fill="#0d7a7a">
    <circle cx="400" cy="600" r="80"/>
    <circle cx="1520" cy="650" r="70"/>
  </g>
  
  <linearGradient id="queueFade" x1="0%" y1="0%" x2="0%" y2="100%">
    <stop offset="0%" style="stop-color:#f8f9fa;stop-opacity:0" />
    <stop offset="100%" style="stop-color:#f8f9fa;stop-opacity:1" />
  </linearGradient>
  <rect x="0" y="680" width="1920" height="400" fill="url(#queueFade)"/>
</svg>
