<svg xmlns="http://www.w3.org/2000/svg" viewBox="0 0 1920 1080" preserveAspectRatio="xMidYMid slice">
  <defs>
    <linearGradient id="staffPrimary" x1="0%" y1="0%" x2="100%" y2="100%">
      <stop offset="0%" style="stop-color:#0d7a7a;stop-opacity:0.20" />
      <stop offset="100%" style="stop-color:#0a5f5f;stop-opacity:0.07" />
    </linearGradient>
    <linearGradient id="staffAccent" x1="100%" y1="0%" x2="0%" y2="100%">
      <stop offset="0%" style="stop-color:#4a9ea8;stop-opacity:0.16" />
      <stop offset="100%" style="stop-color:#3d8a94;stop-opacity:0.05" />
    </linearGradient>
    <pattern id="staffGrid" width="55" height="55" patternUnits="userSpaceOnUse">
      <rect width="55" height="55" fill="none" stroke="#0d7a7a" stroke-width="0.5" stroke-opacity="0.09"/>
    </pattern>
  </defs>
  
  <rect width="1920" height="1080" fill="#f8f9fa"/>
  
  <ellipse cx="0" cy="250" rx="880" ry="650" fill="url(#staffPrimary)"/>
  <ellipse cx="1920" cy="180" rx="820" ry="600" fill="url(#staffAccent)"/>
  
  <rect width="1920" height="1080" fill="url(#staffGrid)" opacity="0.55"/>
  
  <g opacity="0.05" fill="#0d7a7a">
    <path d="M 180 180 L 200 180 L 200 160 L 220 160 L 220 180 L 240 180 L 240 200 L 220 200 L 220 220 L 200 220 L 200 200 L 180 200 Z"/>
    <path d="M 1620 230 L 1640 230 L 1640 210 L 1660 210 L 1660 230 L 1680 230 L 1680 250 L 1660 250 L 1660 270 L 1640 270 L 1640 250 L 1620 250 Z"/>
    <path d="M 320 820 L 340 820 L 340 800 L 360 800 L 360 820 L 380 820 L 380 840 L 360 840 L 360 860 L 340 860 L 340 840 L 320 840 Z"/>
    <path d="M 1480 870 L 1500 870 L 1500 850 L 1520 850 L 1520 870 L 1540 870 L 1540 890 L 1520 890 L 1520 910 L 1500 910 L 1500 890 L 1480 890 Z"/>
  </g>
  
  <g opacity="0.04" stroke="#0d7a7a" stroke-width="1.5" fill="none">
    <path d="M 120 480 Q 370 400 620 480 T 1120 480 T 1620 480"/>
    <path d="M 550 720 Q 800 640 1050 720 T 1550 720"/>
  </g>
  
  <linearGradient id="staffFade" x1="0%" y1="0%" x2="0%" y2="100%">
    <stop offset="0%" style="stop-color:#f8f9fa;stop-opacity:0" />
    <stop offset="100%" style="stop-color:#f8f9fa;stop-opacity:1" />
  </linearGradient>
  <rect x="0" y="660" width="1920" height="420" fill="url(#staffFade)"/>
</svg>
